<?xml version="1.0" encoding="utf-8"?>
<!-- Generator: Adobe Illustrator 23.0.1, SVG Export Plug-In . SVG Version: 6.00 Build 0)  -->
<svg version="1.1" id="Layer_1" xmlns="http://www.w3.org/2000/svg" xmlns:xlink="http://www.w3.org/1999/xlink" x="0px" y="0px"
	 viewBox="0 0 224 173" style="enable-background:new 0 0 224 173;" xml:space="preserve">
<style type="text/css">
	.st0{fill:#E72729;}
</style>
<path class="st0" d="M173.2,37l-8.5,29.4v21.3l-23.6-57.6c-0.7-1.6-2.1-2.8-3.9-3l-35.3-5.5c-2.4-0.4-4.8,1.1-5.5,3.4l-11,34.8v25.3
	L60.8,17.8c-0.6-1.7-2.1-2.9-3.9-3.2L14.7,8.1C11,7.5,8,11,9.2,14.6l50.8,150c0.7,2,2.6,3.4,4.7,3.4h34c2.1,0,4.1-1.4,4.7-3.4
	l22.1-65.3v24.4l15.1,41.1c0.7,2,2.6,3.3,4.7,3.3h36.4c2.3,0,4.2-1.5,4.8-3.7l32.3-119.1c0.8-2.9-1.1-5.8-4.1-6.3l-36-5.6
	C176.3,33.1,173.9,34.6,173.2,37z"/>
<g>
	<path class="st0" d="M194.9,159.7h-2v-1h5.2v1h-2v5.6h-1.2V159.7z"/>
	<path class="st0" d="M204.9,160.3l-2.1,5.1h-0.5l-2-5.1v5.1h-1.2v-6.7h1.6l1.8,4.5l1.8-4.5h1.6v6.7h-1.2V160.3z"/>
</g>
</svg>
