<?xml version="1.0" encoding="utf-8"?>
<!-- Generator: Adobe Illustrator 23.0.1, SVG Export Plug-In . SVG Version: 6.00 Build 0)  -->
<svg version="1.1" id="Layer_1" xmlns="http://www.w3.org/2000/svg" xmlns:xlink="http://www.w3.org/1999/xlink" x="0px" y="0px"
	 viewBox="0 0 226 49.1" style="enable-background:new 0 0 226 49.1;" xml:space="preserve">
<style type="text/css">
	.st0{fill:#FFFFFF;}
</style>
<g>
	<path class="st0" d="M124.7,19.5l-7.2,1.1c-0.4,0.1-0.6,0.4-0.6,0.7v21.8c0,0.4,0.3,0.7,0.7,0.7h20.8c0.4,0,0.7-0.3,0.7-0.7v-5.6
		c0-0.4-0.4-0.8-0.8-0.7l-12.9,0.5V20.3C125.6,19.8,125.2,19.4,124.7,19.5z"/>
	<path class="st0" d="M220.1,4.7c0.8,0,1.4,0.6,1.4,1.4s-0.6,1.4-1.4,1.4s-1.4-0.6-1.4-1.4S219.4,4.7,220.1,4.7 M220.1,4.2
		c-1,0-1.9,0.8-1.9,1.9s0.8,1.9,1.9,1.9s1.9-0.8,1.9-1.9S221.2,4.2,220.1,4.2L220.1,4.2z"/>
	<path class="st0" d="M46.9,11.3l-2.1,7.3v5.3L38.9,9.6c-0.2-0.4-0.5-0.7-0.9-0.7l-8.9-1.4c-0.6-0.1-1.1,0.3-1.3,0.8L25.1,17v6.3
		L18.9,6.5c-0.2-0.4-0.5-0.7-0.9-0.8L7.4,4.1C6.5,4,5.8,4.8,6.1,5.7l12.7,37.4c0.2,0.5,0.6,0.8,1.1,0.8h8.5c0.5,0,1-0.3,1.1-0.8
		l5.5-16.3v6.1l3.8,10.3c0.2,0.5,0.6,0.8,1.1,0.8h9.1c0.5,0,1-0.4,1.2-0.9l8.1-29.7c0.2-0.7-0.3-1.4-1-1.5l-9.1-1.4
		C47.7,10.3,47.1,10.7,46.9,11.3z"/>
	<path class="st0" d="M206.1,8l0,23.1l-1.8-3l-18.9-17.4c-0.3-0.3-0.6-0.4-1-0.3l-9.6,1.5c-0.6,0.1-1,0.6-1,1.2v29.7
		c0,0.7,0.5,1.2,1.2,1.2h8.8c0.7,0,1.2-0.5,1.2-1.2l0-19.8l1.9,3.3l18.9,17.4c0.2,0.2,0.5,0.3,0.8,0.3h9.5c0.7,0,1.2-0.5,1.2-1.2
		V6.6c0-0.7-0.6-1.3-1.4-1.2l-8.8,1.3C206.5,6.9,206.1,7.4,206.1,8z"/>
	<path class="st0" d="M79.8,16.2v11.1l-1.2-1.6l-8.9-0.8l0.2-10.4c0-0.4-0.3-0.7-0.6-0.8l-8.4-1.3c-0.4-0.1-0.9,0.3-0.9,0.7v30
		c0,0.4,0.3,0.7,0.7,0.7h8.2c0.4,0,0.7-0.3,0.7-0.7V31.3l1.1,1.6l9.1,0.5v9.7c0,0.4,0.3,0.7,0.7,0.7h8.4c0.4,0,0.7-0.3,0.7-0.7V17.5
		c0-0.4-0.3-0.7-0.6-0.7l-8.4-1.3C80.2,15.4,79.8,15.8,79.8,16.2z"/>
	<path class="st0" d="M113.8,20.6L93,17.4c-0.4-0.1-0.9,0.3-0.9,0.7v25c0,0.4,0.3,0.7,0.7,0.7h20.8c0.4,0,0.7-0.3,0.7-0.7v-4.7
		c0-0.4-0.3-0.7-0.7-0.7l-12.9-0.5l0-3.6l1,1.1l11.9,0.7c0.4,0,0.8-0.3,0.8-0.7v-4.7c0-0.4-0.3-0.7-0.7-0.7l-12.9-1.3l0-3.8l1,1.3
		l11.8,1.3c0.4,0.1,0.8-0.3,0.8-0.7v-4.7C114.4,21,114.2,20.7,113.8,20.6z"/>
	<path class="st0" d="M170.6,12.4l-28.2,4.4c-0.4,0.1-0.6,0.4-0.6,0.7v25.6c0,0.4,0.3,0.7,0.7,0.7h28.2c0.4,0,0.7-0.3,0.7-0.7v-6.9
		c0-0.4-0.4-0.8-0.8-0.7l-19,0.8l0-4.5l0.9,1.6l18.3-1c0.4,0,0.7-0.3,0.7-0.7v-6.9c0-0.4-0.4-0.8-0.8-0.7l-19,1.9l0-4.4l0.9,1.5
		l18.2-2.1c0.4,0,0.7-0.4,0.7-0.7v-6.9C171.4,12.7,171,12.4,170.6,12.4z"/>
	<g>
		<path class="st0" d="M220.1,6.3h-0.3v0.7h-0.4v-2h0.9c0.4,0,0.6,0.3,0.6,0.6c0,0.3-0.2,0.5-0.5,0.6l0.5,0.8h-0.4L220.1,6.3z
			 M220.2,5.4h-0.5V6h0.5c0.2,0,0.3-0.1,0.3-0.3C220.5,5.5,220.4,5.4,220.2,5.4z"/>
	</g>
</g>
</svg>
